<?xml version="1.0" standalone="no"?>
<!DOCTYPE svg PUBLIC "-//W3C//DTD SVG 20010904//EN"
 "http://www.w3.org/TR/2001/REC-SVG-20010904/DTD/svg10.dtd">
<svg version="1.0" xmlns="http://www.w3.org/2000/svg"
 width="500.000000pt" height="500.000000pt" viewBox="0 0 500.000000 500.000000"
 preserveAspectRatio="xMidYMid meet">

<g transform="translate(0.000000,500.000000) scale(0.100000,-0.100000)"
fill="#000000" stroke="none">
<path d="M686 4981 c-6 -9 10 -24 71 -65 58 -38 156 -143 182 -193 21 -42 21
-49 21 -658 0 -401 4 -641 11 -688 24 -154 120 -386 227 -547 73 -111 251
-289 367 -367 50 -33 301 -185 560 -338 632 -374 633 -375 703 -449 96 -103
104 -132 110 -418 2 -130 2 -248 -2 -262 l-6 -26 -293 0 c-338 0 -407 8 -495
52 -77 39 -175 139 -216 222 -29 57 -30 67 -37 237 -4 98 -10 183 -14 189 -4
7 -156 10 -465 10 l-459 0 -7 -22 c-9 -28 4 -382 17 -478 25 -172 133 -422
253 -581 82 -108 254 -273 354 -340 107 -70 260 -143 367 -173 172 -48 270
-57 730 -66 524 -10 1395 -12 1459 -4 l47 7 -63 42 c-70 47 -176 154 -201 200
-13 27 -16 115 -20 670 -4 617 -5 643 -26 730 -49 199 -125 372 -229 520 -68
95 -210 241 -306 312 -38 28 -173 113 -300 189 -127 76 -274 163 -326 195 -52
31 -194 115 -315 187 -272 162 -330 203 -389 271 -85 101 -91 127 -91 426 l0
260 255 3 c344 3 442 -6 536 -52 89 -44 170 -128 215 -222 30 -64 32 -74 39
-242 6 -115 12 -177 20 -182 16 -10 859 -24 899 -15 l31 7 0 176 c0 295 -35
464 -139 677 -90 184 -191 313 -356 455 -188 161 -364 252 -595 307 -94 22
-138 25 -425 33 -486 13 -1693 21 -1699 11z"/>
</g>
</svg>
