<?xml version="1.0" standalone="no"?>
<!DOCTYPE svg PUBLIC "-//W3C//DTD SVG 20010904//EN"
 "http://www.w3.org/TR/2001/REC-SVG-20010904/DTD/svg10.dtd">
<svg version="1.0" xmlns="http://www.w3.org/2000/svg"
 width="500.000000pt" height="500.000000pt" viewBox="0 0 500.000000 500.000000"
 preserveAspectRatio="xMidYMid meet">

<g transform="translate(0.000000,500.000000) scale(0.100000,-0.100000)"
fill="#000000" stroke="none">
<path d="M1000 4710 c0 -5 19 -21 41 -36 58 -36 125 -100 163 -154 l31 -45 5
-590 5 -590 39 -115 c77 -231 169 -382 326 -534 115 -111 157 -140 590 -396
569 -337 612 -364 665 -415 88 -86 98 -117 109 -356 5 -113 6 -223 2 -243 l-7
-36 -242 0 c-133 1 -275 5 -315 9 -122 14 -225 79 -295 183 -48 73 -57 110
-65 278 l-7 145 -130 6 c-177 9 -582 10 -639 3 l-46 -7 0 -177 c0 -247 23
-367 108 -553 76 -167 226 -349 392 -473 99 -75 277 -166 370 -190 178 -44
187 -45 1005 -56 435 -6 825 -8 867 -4 l77 8 -79 60 c-44 32 -97 84 -119 113
l-38 54 -7 558 c-7 607 -10 637 -68 803 -72 206 -202 394 -367 532 -101 84
-143 110 -815 509 -396 235 -445 279 -480 429 -16 67 -23 355 -10 419 l7 31
256 0 c141 0 285 -5 321 -11 129 -21 243 -110 301 -234 25 -54 29 -75 35 -212
l7 -152 26 -5 c46 -9 779 -11 788 -3 15 16 8 356 -11 450 -47 245 -171 466
-362 647 -182 172 -353 265 -594 322 -73 17 -138 21 -455 28 -542 12 -1385 12
-1385 0z"/>
</g>
</svg>
